<svg xmlns="http://www.w3.org/2000/svg" xmlns:xlink="http://www.w3.org/1999/xlink" width="2070" height="1254.05"><rect width="2070" height="1254.05" rx="5" ry="5" class="a"/><svg y="0%" x="0%"><circle cx="20" cy="20" r="6" fill="#ff5f58"/><circle cx="40" cy="20" r="6" fill="#ffbd2e"/><circle cx="60" cy="20" r="6" fill="#18c132"/></svg><svg height="1194.05" viewBox="0 0 203 119.405" width="2030" x="15" xmlns="http://www.w3.org/2000/svg" xmlns:xlink="http://www.w3.org/1999/xlink" y="50"><style>@keyframes k{0%{transform:translateX(0)}11.6%{transform:translateX(-406px)}12.2%{transform:translateX(-609px)}12.3%{transform:translateX(-1624px)}to{transform:translateX(-1827px)}}.a{fill:#282d35}.f{fill:#b9c0cb;white-space:pre}</style><g font-family="Monaco,Consolas,Menlo,'Bitstream Vera Sans Mono','Powerline Symbols',monospace" font-size="1.67"><defs><symbol id="1"><text y="1.67" class="f">/home/hungtran/.zshrc:113:</text><text x="27.054" y="1.67" class="f">no</text><text x="30.06" y="1.67" class="f">such</text><text x="35.07" y="1.67" class="f">file</text><text x="40.08" y="1.67" class="f">or</text><text x="43.086" y="1.67" class="f">directory:</text><text x="54.108" y="1.67" class="f">/bin/brew</text></symbol><symbol id="2"><text y="1.67" class="f">/home/hungtran/.zshrc:114:</text><text x="27.054" y="1.67" class="f">no</text><text x="30.06" y="1.67" class="f">such</text><text x="35.07" y="1.67" class="f">file</text><text x="40.08" y="1.67" class="f">or</text><text x="43.086" y="1.67" class="f">directory:</text><text x="54.108" y="1.67" class="f">/bin/brew</text></symbol><symbol id="3"><text y="1.67" style="white-space:pre" fill="#a8cc8c" font-weight="700">➜</text><text x="3.006" y="1.67" style="white-space:pre" fill="#66c2cd" font-weight="700">~</text></symbol><symbol id="a"><path fill="transparent" d="M0 0h203v55H0z"/></symbol><symbol id="b"><path fill="#6f7683" d="M0 0h1.102v2.171H0z"/></symbol></defs><path class="a" d="M0 0h203v119.405H0z"/><g style="animation-duration:5.927683s;animation-iteration-count:infinite;animation-name:k;animation-timing-function:steps(1,end)"><svg width="2030"><svg><use xlink:href="#a"/><use xlink:href="#b" x="-.004"/></svg><svg x="203"><use xlink:href="#a"/><use xlink:href="#b" x="-.004" y="2.146"/><use xlink:href="#1"/></svg><svg x="406"><use xlink:href="#a"/><use xlink:href="#b" x="-.004" y="4.317"/><use xlink:href="#1"/><use xlink:href="#2" y="2.171"/></svg><svg x="609"><use xlink:href="#a"/><use xlink:href="#b" x="-.004" y="4.317"/><use xlink:href="#1"/><use xlink:href="#2" y="2.171"/></svg><svg x="812"><use xlink:href="#a"/><use xlink:href="#b" x="-.004" y="4.317"/><use xlink:href="#1"/><use xlink:href="#2" y="2.171"/></svg><svg x="1015"><use xlink:href="#a"/><use xlink:href="#b" x="-.004" y="4.317"/><use xlink:href="#1"/><use xlink:href="#2" y="2.171"/></svg><svg x="1218"><use xlink:href="#a"/><use xlink:href="#b" x="4.996" y="4.317"/><use xlink:href="#1"/><use xlink:href="#2" y="2.171"/><use xlink:href="#3" y="4.342"/></svg><svg x="1421"><use xlink:href="#a"/><use xlink:href="#b" x="4.996" y="4.317"/><use xlink:href="#1"/><use xlink:href="#2" y="2.171"/><use xlink:href="#3" y="4.342"/></svg><svg x="1624"><use xlink:href="#a"/><use xlink:href="#b" x="4.996" y="4.317"/><use xlink:href="#1"/><use xlink:href="#2" y="2.171"/><use xlink:href="#3" y="4.342"/></svg><svg x="1827"><use xlink:href="#a"/><use xlink:href="#b" x="-.004" y="6.488"/><use xlink:href="#1"/><use xlink:href="#2" y="2.171"/><use xlink:href="#3" y="4.342"/></svg></svg></g></g></svg></svg>